<?xml version="1.0" standalone="no"?>
<!DOCTYPE svg PUBLIC "-//W3C//DTD SVG 20010904//EN"
 "http://www.w3.org/TR/2001/REC-SVG-20010904/DTD/svg10.dtd">
<svg version="1.0" xmlns="http://www.w3.org/2000/svg"
 width="192.000000pt" height="192.000000pt" viewBox="0 0 192.000000 192.000000"
 preserveAspectRatio="xMidYMid meet">

<g transform="translate(0.000000,192.000000) scale(0.100000,-0.100000)"
fill="#000000" stroke="none">
<path d="M0 1605 l0 -315 313 2 312 3 3 313 2 312 -315 0 -315 0 0 -315z m397
200 c74 -37 106 -90 111 -180 3 -81 -17 -128 -78 -176 -137 -109 -339 -12
-340 164 0 164 160 265 307 192z"/>
<path d="M233 1731 c-45 -28 -66 -65 -66 -116 0 -125 151 -181 236 -87 46 51
40 136 -12 186 -40 39 -112 46 -158 17z"/>
<path d="M640 1605 l0 -315 315 0 315 0 0 315 0 315 -315 0 -315 0 0 -315z
m245 135 c33 -33 64 -60 70 -60 6 0 37 27 70 60 59 60 89 72 113 48 23 -23 12
-48 -52 -115 l-65 -68 66 -67 c56 -57 65 -70 59 -92 -12 -47 -52 -35 -123 36
l-63 62 -57 -56 c-78 -75 -97 -84 -123 -58 -11 11 -20 25 -20 31 0 6 30 42 67
80 l66 69 -66 69 c-37 38 -67 72 -67 76 0 3 5 15 10 26 19 34 52 22 115 -41z"/>
<path d="M1282 1608 l3 -313 318 -3 317 -2 0 315 0 315 -320 0 -320 0 2 -312z"/>
<path d="M0 965 l0 -315 313 2 312 3 3 313 2 312 -315 0 -315 0 0 -315z m240
131 c30 -31 59 -56 64 -56 5 0 40 30 78 66 65 63 69 66 91 51 38 -25 32 -44
-39 -117 l-68 -71 69 -69 c64 -65 68 -71 57 -95 -19 -42 -50 -32 -122 40 l-66
65 -64 -65 c-64 -64 -93 -78 -118 -53 -22 22 -13 41 55 110 l66 69 -68 69
c-57 58 -67 72 -61 93 6 27 31 38 56 26 8 -4 40 -33 70 -63z"/>
<path d="M640 965 l0 -315 315 0 315 0 0 315 0 315 -315 0 -315 0 0 -315z
m406 206 c89 -41 140 -152 114 -247 -54 -191 -318 -212 -400 -32 -48 105 -3
224 105 281 41 22 130 21 181 -2z"/>
<path d="M922 1109 c-102 -21 -136 -155 -59 -226 67 -60 154 -49 204 26 66 99
-26 226 -145 200z"/>
<path d="M1285 1267 c-3 -7 -4 -147 -3 -312 l3 -300 318 -3 317 -2 0 315 0
315 -315 0 c-245 0 -317 -3 -320 -13z m383 -96 c106 -55 150 -174 102 -279
-65 -144 -257 -169 -358 -46 -91 110 -45 280 88 333 43 17 128 13 168 -8z"/>
<path d="M1536 1105 c-50 -18 -74 -41 -88 -87 -33 -112 79 -210 184 -159 54
26 78 65 78 125 0 88 -90 150 -174 121z"/>
<path d="M0 320 l0 -320 315 0 315 0 -2 318 -3 317 -312 3 -313 2 0 -320z
m363 199 c21 -5 53 -24 73 -41 100 -88 100 -238 0 -326 -135 -118 -346 -19
-346 163 0 146 131 244 273 204z"/>
<path d="M233 430 c-45 -27 -66 -64 -66 -115 0 -104 113 -169 200 -115 45 27
66 64 66 115 0 104 -113 169 -200 115z"/>
<path d="M647 633 c-4 -3 -7 -147 -7 -320 l0 -313 315 0 315 0 0 320 0 320
-308 0 c-170 0 -312 -3 -315 -7z m243 -198 l64 -65 66 65 c65 64 94 77 118 53
23 -23 12 -48 -53 -116 l-64 -68 64 -64 c68 -68 81 -101 46 -120 -11 -5 -23
-10 -26 -10 -4 0 -38 30 -76 67 l-70 67 -57 -56 c-74 -72 -92 -82 -120 -62
-12 8 -22 22 -22 31 0 8 30 46 67 84 l66 69 -66 69 c-37 38 -67 72 -67 76 0 3
5 15 10 26 19 35 52 22 120 -46z"/>
<path d="M1287 633 c-4 -3 -7 -147 -7 -320 l0 -313 320 0 320 0 0 320 0 320
-313 0 c-173 0 -317 -3 -320 -7z m353 -113 c19 -5 52 -24 74 -42 131 -107 84
-322 -80 -368 -116 -33 -239 42 -265 161 -35 156 113 293 271 249z"/>
<path d="M1514 434 c-35 -17 -74 -79 -74 -118 0 -64 57 -126 123 -133 81 -9
147 49 147 132 0 102 -103 165 -196 119z"/>
</g>
</svg>
